<svg t="1687671812418" class="icon" viewBox="0 0 1024 1024" version="1.1" xmlns="http://www.w3.org/2000/svg" p-id="1264" width="200" height="200"><path d="M985.6 985.6H38.4V38.4h537.6l102.4 102.4H140.8v742.4h742.4V345.6l102.4 102.4v537.6z" fill="#4C4C4C" p-id="1265"></path><path d="M326.4 249.6h371.2v89.6h-371.2zM709.7472 44.8l269.44 269.44v126.7072L583.04 44.8h126.7072z" fill="#4C4C4C" p-id="1266"></path><path d="M512 396.8a192 192 0 0 1 192 192c0 106.0352-85.9648 192-192 192-106.0352 0-192-85.9648-192-192 0-106.0352 85.9648-192 192-192z m16.0512 111.3088a82.2784 82.2784 0 1 0-32.1024 161.3952 82.2784 82.2784 0 0 0 32.1024-161.408z" fill="#FF4D4F" p-id="1267"></path></svg>